<?xml version="1.0" encoding="UTF-8"?><svg id="Layer_1" xmlns="http://www.w3.org/2000/svg" viewBox="0 0 360 84.72"><defs><style>.cls-1{fill:#9ed7db;}.cls-2{fill:#d1d4de;}.cls-3{fill:#767c9e;}.cls-4{fill:#b2b5c7;}.cls-5{fill:#121d56;}.cls-6{fill:#8a90ac;}.cls-7{fill:#131e57;}.cls-8{fill:#c0e5e8;}.cls-9{fill:#19245b;}.cls-10{fill:#a8adc1;}.cls-11{fill:#9b9fb8;}.cls-12{fill:#777d9e;}.cls-13{fill:#a8abc1;}.cls-14{fill:#141f57;}.cls-15{fill:#ee6146;}.cls-16{fill:#16225a;}.cls-17{fill:#f4eeda;}.cls-18{fill:#fec869;}.cls-19{fill:#84ccd2;}.cls-20{fill:#131f57;}.cls-21{fill:#1b265d;}.cls-22{fill:#152058;}.cls-23{fill:#101c55;}.cls-24{fill:#ee6147;}.cls-25{fill:#a9aec2;}.cls-26{fill:#232e63;}.cls-27{fill:#d9dbe4;}.cls-28{fill:#0f1b55;}.cls-29{fill:#1d275e;}.cls-30{fill:#18235b;}.cls-31{fill:#acb0c4;}.cls-32{fill:#7b81a1;}.cls-33{fill:#fed89b;}.cls-34{fill:#f3dbcb;}.cls-35{fill:#101b55;}.cls-36{fill:#5f668d;}.cls-37{fill:#a3a7bd;}.cls-38{fill:#1d285e;}.cls-39{fill:#f4e0d4;}.cls-40{fill:#f7dfd6;}.cls-41{fill:#d2d5df;}.cls-42{fill:#cfd2dd;}.cls-43{fill:#707699;}.cls-44{fill:#676e93;}.cls-45{fill:#7f85a4;}.cls-46{fill:#1e295f;}.cls-47{fill:#141f58;}.cls-48{fill:#fad0b7;}.cls-49{fill:#cdd0db;}.cls-50{fill:#ef6b52;}.cls-51{fill:#1c275d;}.cls-52{fill:#8288a6;}.cls-53{fill:#121d57;}.cls-54{fill:#636a90;}.cls-55{fill:#f1dfc6;}.cls-56{fill:#f2dcc8;}.cls-57{fill:#f2ddc8;}.cls-58{fill:#1a255c;}.cls-59{fill:#f8b192;}.cls-60{fill:#f39584;}.cls-61{fill:#aaafc3;}.cls-62{fill:#f8ede5;}.cls-63{fill:#162159;}.cls-64{fill:#111c55;}.cls-65{fill:#fdd89b;}.cls-66{fill:#17225a;}.cls-67{fill:#878ca9;}.cls-68{fill:#fec560;}.cls-69{fill:#1f2a60;}.cls-70{fill:#747b9c;}.cls-71{fill:#686f93;}.cls-72{fill:#8086a5;}.cls-73{fill:#7d83a3;}.cls-74{fill:#676e92;}.cls-75{fill:#111d56;}.cls-76{fill:#f8c0ae;}.cls-77{fill:#121e57;}.cls-78{fill:#979cb5;}.cls-79{fill:#172259;}.cls-80{fill:#111c56;}.cls-81{fill:#6b7296;}</style></defs><path class="cls-18" d="M20.15,41.16c11.55-1.55,21.03-7.81,25.95-18.51.51-1.11,2-6.11,2.24-6.38.84-.97,4.33.62,5.39,1.08,9.78,4.32,13.04,10.26,5.04,18.89-2.45,2.64-2.24.07-3.59-1.43-3.3-3.66-8.89-1.46-9.83,3.23-.19.48-.15.95,0,1.44.15.89.16,1.31.59,2.17.55,1.12,2.44,2.05,1.35,2.99-1.58,1.37-8.64,2.77-10.81,2.74-2.03-.19-4.15-.13-6.24,0-3.89-.34-7.1-1.02-10.71-2.59-.99-.43-4.46-1.98-4.54-3.03-.05-.65.37-.51.63-.6,1.45.23,3.1.21,4.56,0Z"/><path class="cls-50" d="M47.01,58.16c-.17-.7-.21-1.45,0-2.15-.33-2.11-2.66-4.48-4.8-4.79-.46-.42-1.41-.5-1.92-.24.21.07.21.15,0,.24-2.41.3-4.47,2.38-4.8,4.79-.07.21-.15.21-.24,0-.29-.41-.16,1,0,1.68.07-.21.15-.21.24,0,.04.54.49,1.58.45,1.77-.24,1.01-3.49.2-4.3.03-6.29-1.31-13.93-4.98-16.07-11.48-.21-.64-.86-2.51.12-2.53.36,0,3.69,1.73,4.46,2.03,3.59,1.4,7.41,2.15,11.26,2.28.5.09.98.17,1.44.24.77-.05,1.57-.13,2.4-.24,11.11-.48,22.01-6.35,27.92-15.82.44-.71,2.42-4.67,2.68-4.75.74-.22,1.56,1.62,1.82,2.22,4.15,9.54-5.42,20.34-13.23,24.7-1.16.64-5.77,2.84-6.84,2.76-.62-.05-.46-.4-.6-.73Z"/><path class="cls-19" d="M43.41,14.84l1.2.24c1.72.65,1.27,1.68.89,3.16-.88,3.42-3.67,8.1-6.04,10.72-3.36,3.71-2.06.61-4.32-1.44-.92-.84-2.04-1.2-3.24-1.44-.41-.17-.78-.16-1.2,0-4.39.78-6.64,5-4.28,8.94.36.6,1.64,1.24,1.06,2.08-.14.2-2.06.76-2.48.88-.83.22-3.05.79-3.77.79h-5.28c-1.16,0,.02-3.81.24-4.55,2.96-9.97,12.34-17.82,22.66-19.15.38.17.82.2,1.2,0,.16-.02.32.01.48,0,.54-.18,1.1-.26,1.68-.24.4-.02.8-.01,1.2,0Z"/><path class="cls-18" d="M30.46,28c.45-.23,1-.23,1.44,0,1.58.26,2.68,1.64,3.12,3.11.09.4.08.79,0,1.2-.32,1.73-1.16,3.08-3.12,3.35l-1.68-.24c-4.16-1.05-3.7-6.88.24-7.42Z"/><path class="cls-50" d="M54.68,37.81c-.19.62-.19,1.3,0,1.91-.5,3.91-7,3.83-7.44,0,.18-.54.17-1.13,0-1.68.32-2.23,2.66-3.64,4.82-2.96,1.04.33,2.42,1.63,2.61,2.72Z"/><path class="cls-69" d="M40.29,53.13c.54.18,1.13.17,1.68,0,1.42.2,2.41,1.35,2.88,2.63-.16.79-.15,1.37,0,2.15-.57,1.77-1.19,2.12-2.88,2.63h-1.68c-1.79-.51-2.58-1.25-2.88-3.11v-1.2c.27-1.58,1.2-2.92,2.88-3.11Z"/><path class="cls-68" d="M36.46,47.39c-.17.36-.64.23-.96.24-1.27-.19-2.57-.17-3.84,0-.62-.03-1.08-.21-1.44-.24,1.66-.41,3.68-.27,5.42-.26.44,0,.77.26.81.26Z"/><path class="cls-68" d="M19.91,41.16h.24c-.09.01-.49.41-.81.26-.89-.05-1.78.02-2.67-.02-.33-.01-.99.17-1.08-.24,1.43-.21,2.88-.2,4.32,0Z"/><path class="cls-57" d="M19.91,41.16h-4.32c1.13-.41,3.13-.39,4.32,0Z"/><path class="cls-65" d="M35.5,47.63c-1.24.03-2.61.06-3.84,0,1.02-.4,2.87-.4,3.84,0Z"/><path class="cls-15" d="M40.29,50.98l-.24-.24h2.4s-.24.48-.24.48c-.15-.02-.32.01-.48,0-.49-.11-.97-.19-1.44-.24Z"/><path class="cls-77" d="M45.09,56.24c-.16.38-.17.81,0,1.2-.05.29-.21.39-.24.48-.4-.45-.4-1.71,0-2.15.06.16.21.34.24.48Z"/><path class="cls-28" d="M41.97,60.55c-.78.24-.9.22-1.68,0,.3-.4,1.38-.4,1.68,0Z"/><path class="cls-59" d="M35.26,49.78c-.54.42-1.66.25-2.4.24-.21-.07-.21-.15,0-.24.79,0,1.61.03,2.4,0Z"/><path class="cls-39" d="M47.01,58.16c-.27-.65-.51-1.55,0-2.15.1.65-.07,1.48,0,2.15Z"/><path class="cls-15" d="M54.68,38.05c.23.45.22.99,0,1.44,0,.08,0,.16,0,.24-.4-.37-.4-1.54,0-1.91.01.08,0,.16,0,.24Z"/><path class="cls-23" d="M37.42,57.44c-.02-.14-.21-.32-.21-.6s.18-.45.21-.6c.38.16.38,1.04,0,1.2Z"/><path class="cls-33" d="M31.9,35.66c-.79.11-1.07-.09-1.68-.24.53.06,1.34-.21,1.68.24Z"/><path class="cls-76" d="M35.5,57.68h-.24c-.18-.52-.23-1.21,0-1.68h.24c-.06.44-.04,1.21,0,1.68Z"/><path class="cls-55" d="M42.21,14.84c-.29.01-1.13.2-1.68.24.34-.45,1.15-.18,1.68-.24Z"/><path class="cls-24" d="M47.25,39.73c-.05-.42-.06-1.27,0-1.68.4.3.4,1.37,0,1.68Z"/><path class="cls-75" d="M41.97,53.13c-.3.4-1.38.4-1.68,0,.43-.05,1.26-.06,1.68,0Z"/><path class="cls-40" d="M41.73,51.21c-.42-.03-1.04-.05-1.44,0v-.24c.45.03,1.17-.18,1.44.24Z"/><path class="cls-17" d="M45.33,39.49c-.03-.16-.29-.33-.27-.83.02-.34.25-.51.27-.6v1.44Z"/><path class="cls-48" d="M54.68,39.49c.04-.4.05-1.04,0-1.44.39.24.39,1.21,0,1.44Z"/><path class="cls-34" d="M31.9,28c-.32-.05-1.11-.05-1.44,0,.23-.38,1.2-.39,1.44,0Z"/><path class="cls-60" d="M32.86,49.78v.24c-.45,0-1.18.16-1.44-.24.48.02.96,0,1.44,0Z"/><path class="cls-62" d="M35.02,32.31v-1.2c.28.93.13.49,0,1.2Z"/><path class="cls-52" d="M45.09,57.44c-.38-.16-.38-1.04,0-1.2.04.25.04.94,0,1.2Z"/><path class="cls-1" d="M40.05,15.08c-.16.38-1.04.38-1.2,0,.39-.05.81.04,1.2,0Z"/><path class="cls-8" d="M31.9,26.09h-1.2c.08-.02.25-.26.6-.26s.51.25.6.26Z"/><path class="cls-56" d="M44.61,15.08c-.38-.01-.99.15-1.2-.24.64.02.63.03,1.2.24Z"/><path class="cls-15" d="M35.26,56v1.68c-.49-.44-.16-1.33-.24-1.91l.24.24Z"/><path class="cls-69" d="M69.79,46.67c-.3.05-.38.29-.24.72-2.33,12.37-11.91,20.81-24.46,22.26-1.77-.14-3.5-.14-5.28,0-6.62-.77-12.48-3.26-17.15-8.13-.52-.54-3.59-3.74-1.45-3.6,3.84,2.36,7.91,3.11,12.13,4.31.43.17.83.17,1.2,0,.24,0,.48,0,.72,0,.21.07.21.15,0,.24,1.1.23,6.04.35,6.46-.12.06-.06.15-.1.26-.12.16-.02.32.02.48,0,1.19.16,3.37-.17,3.6-.48,8.42-1.93,16.01-7.17,20.92-14.19.44-.62,1.41-2.76,1.99-2.82,1.17-.12.95,1.21.83,1.93Z"/><path class="cls-63" d="M41.97,62.22c.13.72-.37.46-.83.48-1.48.05-4.19.21-5.54,0-.18-.03-.37-.02-.35-.24.23-.21.91-.18,1.2,0,.55-.2,1.12-.19,1.68,0,.24,0,.48,0,.72,0,.54-.21,1.14-.19,1.68,0,.6-.04,1.03-.2,1.44-.24Z"/><path class="cls-5" d="M45.09,69.64c-.43.05-.97.22-1.44.24-.78-.19-1.61-.19-2.4,0-.37-.01-1.05-.19-1.44-.24,1.55-.4,3.73-.4,5.28,0Z"/><path class="cls-66" d="M46.05,61.75l.14.25c-1.16.03-2.66.86-3.73.23,1.14-.13,2.5-.23,3.6-.48Z"/><path class="cls-73" d="M43.65,69.88c-.78.04-1.62.03-2.4,0,.53-.41,1.91-.4,2.4,0Z"/><path class="cls-61" d="M38.13,62.46c-.56,0-1.12,0-1.68,0-.21-.07-.21-.15,0-.24.53,0,1.35-.18,1.68.24Z"/><path class="cls-31" d="M40.53,62.46c-.55.03-1.12,0-1.68,0,.3-.4,1.38-.4,1.68,0Z"/><path class="cls-80" d="M69.79,46.67c-.03.18-.19.45-.24.72-.39-.19-.22-.81-.24-1.2h.23s.24.48.24.48Z"/><path class="cls-5" d="M34.54,62.22c-.37.61-.92.08-1.2,0h1.2Z"/><path class="cls-43" d="M36.46,62.22v.24h-1.2v-.24c.4,0,.8,0,1.2,0Z"/><path class="cls-69" d="M274.86,15.08c2.01.12,4.04.16,6.11.12-.08.98-.04,1.34.12,1.08.11-.01.2,0,.24.12.03.2-.02.4,0,.59-.14.38-.26,1.21,0,.96.16,0,.43,1.81.48,2.15-.1.27-.31,1.41,0,.96.11-.01.2,0,.24.12.02.2-.01.4,0,.59-.18.41-.19,1.72,0,.96.39.58.43,1.47.48,2.15-.11.26-.31,1.41,0,.96.11-.01.2,0,.24.12.02.2-.01.4,0,.59-.18.41-.19,1.72,0,.96.32.12.23.46.24.72-.11.27-.31,1.39,0,.96.11-.01.19,0,.24.12.02.12-.01.24,0,.36-.1.27-.32,1.41,0,.96.11-.01.2,0,.24.12.03.19-.02.4,0,.59-.14.38-.26,1.21,0,.96.26.02.45,1.77.48,2.15-.11.26-.31,1.41,0,.96.11-.01.2,0,.24.12.04.19-.04.43,0,.59-.13.68-.05.92.24.72.03.23,0,.48,0,.72-.11.26-.31,1.41,0,.96.11-.01.2,0,.24.12.03.19-.02.4,0,.59-.1.27-.31,1.41,0,.96.11-.01.2,0,.24.12.03.19-.02.4,0,.59-.1.27-.31,1.39,0,.96.11-.01.19,0,.24.12.02.12-.01.24,0,.36-.1.27-.32,1.41,0,.96.11-.01.2,0,.24.12.03.19-.02.4,0,.59-.1.27-.31,1.41,0,.96.11-.01.2,0,.24.12.03.19-.02.4,0,.59-.1.27-.31,1.39,0,.96.11-.01.19,0,.24.12.02.12-.01.24,0,.36-.14.38-.26,1.21,0,.96.19,0,.44,2.01.48,2.39-.1.27-.31,1.39,0,.96.11-.01.19,0,.24.12.02.12-.01.24,0,.36-.1.27-.31,1.4,0,.96.11-.01.2,0,.24.12.04.19-.04.43,0,.59-.13.68-.05.92.24.72.11.66.19,1.69.24,2.39-.11.26-.31,1.41,0,.96.11-.01.2,0,.24.12.04.19-.04.43,0,.59-.13.68-.05.92.24.72.02.31.01.64,0,.96-.12.94-.04,1.18.24.72.03.22,0,.48,0,.72-.11.26-.31,1.41,0,.96.11-.01.2,0,.24.12.03.19-.02.4,0,.59-.14.38-.26,1.21,0,.96.26.02.45,1.77.48,2.15-.11.26-.31,1.41,0,.96.11-.01.2,0,.24.12.03.19-.02.4,0,.59-.1.27-.31,1.4,0,.96.12-.01.19,0,.24.12.02.12,0,.24,0,.35.02.17-.04.27-.2.25l-7.71.23c-.38-.09-.18-.52-.24-.72.15-.7.15-1.34,0-1.91-.07.21-.15.21-.24,0,0-.24,0-.48,0-.72.19-.7.23-1.46,0-2.15-.07.21-.15.21-.24,0-.07-1.39-.23-2.64-.24-4.07.2-.62.22-1.3,0-1.91-.07.21-.15.21-.24,0,0-.39-.03-.81,0-1.2.09-.64,0-1.12-.24-1.44-.01-.47-.03-.97,0-1.44.15-1.34.07-1.9-.24-1.68-.01-.4,0-.8,0-1.2.17-.6.23-1.37,0-1.91-.07.21-.15.21-.24,0-.01-.56,0-1.12,0-1.68l-.24-1.44c0-.56.02-1.12,0-1.68l-.24-1.2c0-.32-.02-.64,0-.96.15-1.25.07-1.88-.24-1.91-.04-.62.03-1.36,0-1.91l-.24-1.2c-.01-.32,0-.64,0-.96.17-.61.23-1.37,0-1.91-.07.21-.15.21-.24,0,0-.39-.02-.8,0-1.2.12-1.14.04-1.7-.24-1.68,0-.47-.03-.97,0-1.44.09-.64,0-1.12-.24-1.44-.01-.47-.03-.97,0-1.44.15-1.34.07-1.9-.24-1.68,0-.4-.03-.8,0-1.2.15-.57.07-.97-.24-1.2-.16.18-.8,2.49-.94,3.01-1.89,6.62-3.34,13.73-5.05,20.45-.44.34-.6.9-.48,1.44-1.49,5.84-2.76,12.01-4.39,17.76-.15.52-.94,3.3-1.13,3.3l-.35.37c-1.81-.06-3.61-.02-5.41.11l-12.23-47.62-.48,1.43c-.24.21-.11,1.49,0,2.15-.02.38.15.99-.24,1.2-.15.47-.15,1.19,0,2.15-.07.33-.22.61-.24.72-.16.82-.16,1.62,0,2.39-.02.38.16.99-.24,1.2-.28,1.79-.36,3.62-.24,5.5.15.32-.22.63-.24.72-.18.67-.18,1.31,0,1.91,0,.53.18,1.35-.24,1.68-.23.53-.14,1.3,0,1.91-.02.38.15.99-.24,1.2-.23.53-.12,1.3,0,1.91-.05.59-.16.77-.24,1.2-.18.67-.18,1.3,0,1.91-.01.28.08,1.43-.24,1.44-.21.64-.16,1.46,0,2.15-.02.38.15.99-.24,1.2-.23.53-.12,1.3,0,1.91-.05.59-.16.77-.24,1.2-.18.66-.18,1.3,0,1.91-.05.74-.21,1.4-.25,2.05-.05.78.42,1.95-.23,2.74-.23.53-.13,1.3,0,1.91-.04.62-.08.66-.24,1.2-.13.17-.22.37-.25.6h-7.05c-.06-.49-.11-1.01-.14-1.56-.01-.16,0-.32,0-.48.35-.22.32-.6.24-.96.09-.81.18-1.58.24-2.39.23-.01.31-.25.24-.72-.01-.24,0-.48,0-.72.35-.22.33-.6.24-.96.09-.81.18-1.58.24-2.39.23-.01.31-.25.24-.72-.01-.24,0-.48,0-.72.35-.22.33-.6.24-.96.09-.81.18-1.58.24-2.39.23-.01.31-.25.24-.72-.02-.3-.02-.66,0-.96.28-.04.36-.28.24-.72.09-.77.14-1.67.24-2.39.29-.04.37-.28.24-.72.1-.76.11-1.61.24-2.39.23-.01.31-.25.24-.72-.02-.31,0-.64,0-.96.27,0,.35-.23.24-.72.07-.8.11-1.6.24-2.39.23-.01.31-.25.24-.72-.01-.24,0-.48,0-.72.22-.21.3-.53.24-.96-.03-.29-.02-.66,0-.96.22-.02.3-.25.24-.72-.01-.23,0-.48,0-.72.22-.01.3-.25.24-.72-.01-.24,0-.48,0-.72.22-.21.3-.53.24-.96-.03-.29-.02-.66,0-.96.22-.02.3-.25.24-.72-.01-.23,0-.48,0-.72.22-.01.3-.25.24-.72-.01-.24,0-.48,0-.72.22-.21.3-.53.24-.96-.02-.23,0-.48,0-.72.23-.19.31-.51.24-.96-.02-.23,0-.48,0-.72.22-.01.3-.25.24-.72-.02-.3-.02-.65,0-.96.22-.01.3-.25.24-.72-.01-.24,0-.48,0-.72.23-.07.31-.39.24-.96-.01-.23-.01-.48,0-.72.22-.01.3-.25.24-.72-.01-.24,0-.48,0-.72.35-.22.33-.6.24-.96.08-.75.13-1.71.24-2.39.29-.04.37-.28.24-.72.11-.73.08-1.63.24-2.39h.24c2.1.08,4.18.16,6.24.24.23.24.3.3.42.65,1.76,5.19,2.96,11.86,4.38,17.3-.09.54,0,2,.24,1.44,1.92,7.4,3.94,15.22,6,22.74-.11.52.02,1.12.48,1.44.18.7.1,1.97.72,2.39l12.23-46.43c.21.07.21.15,0,.24Z"/><path class="cls-66" d="M236,68.21c.01.15.48.93.24,1.44h6.82s.14-1.08.14-1.08l.24.6c-.06.21.16.65-.13.73h-7.54s.24-1.69.24-1.69Z"/><path class="cls-38" d="M246.08,33.51c.09,1.84-.21,3.67-.24,5.5-.72-2,.27-4.16,0-6.22.4-.06.22.45.24.72Z"/><path class="cls-3" d="M250.39,15.08c-1.99.2-4.17.2-6.24,0h-.24c.25-.4.91-.24,1.32-.24,1.65-.02,3.6-.18,5.16.24Z"/><path class="cls-7" d="M250.39,15.08s-.04.2,0,.24c-2.03-.15-4.28.31-6.24-.24h6.24Z"/><path class="cls-38" d="M246.56,27.04c.08.81.18,1.34,0,2.15-.54-.86-.11-2.14-.24-3.11.44-.04.21.66.24.96Z"/><path class="cls-46" d="M246.8,23.69c.06.76.04,1.4,0,2.15-.54-.86-.11-2.14-.24-3.11.43-.04.22.67.24.96Z"/><path class="cls-77" d="M246.32,32.31c-.6-.66-.14-1.7,0-2.39.08.82.05,1.57,0,2.39Z"/><path class="cls-23" d="M245.12,46.43c.05.65.06,1.26,0,1.91-.51-.6-.13-1.65-.24-2.39h.23c.01.16-.01.32,0,.48Z"/><path class="cls-75" d="M244.64,52.89c.03.73.03,1.43,0,2.15-.51-.6-.13-1.66-.24-2.39.27-.04.22.24.24.24Z"/><path class="cls-75" d="M245.36,43.32c.05.65.03,1.27,0,1.91-.51-.6-.13-1.65-.24-2.39h.23c.01.16-.01.32,0,.48Z"/><path class="cls-80" d="M244.4,56.24c.05.65.06,1.26,0,1.91-.51-.6-.13-1.65-.24-2.39h.23c.01.16-.01.32,0,.48Z"/><path class="cls-51" d="M261.91,58.87l-.48.24c.03-.54-.55-1.32,0-1.67.13.48.36.96.48,1.44Z"/><path class="cls-80" d="M243.68,66.05c.05.65.05,1.27,0,1.91-.51-.6-.13-1.65-.24-2.39h.23c.01.16-.01.32,0,.48Z"/><path class="cls-21" d="M255.43,34.7l-.23.24c.03-.53-.55-1.3,0-1.68.14.56.14,1.06.24,1.44Z"/><path class="cls-80" d="M245.6,41.64c-.64-.56-.1-1.42,0-1.91.02.64.01,1.28,0,1.91Z"/><path class="cls-5" d="M242.72,23.69c.01.23.49.88.24,1.43h-.23s-.24-.48-.24-.48c0-.34.05-.67.24-.96Z"/><path class="cls-80" d="M244.16,61.27c-.64-.56-.1-1.43,0-1.91,0,.65.04,1.27,0,1.91Z"/><path class="cls-80" d="M244.88,51.45c-.64-.56-.1-1.43,0-1.91,0,.65.03,1.27,0,1.91Z"/><path class="cls-80" d="M240.32,39.73c.02.19.46.75.24,1.2l-.48-.24c0-.34.05-.67.24-.96Z"/><path class="cls-47" d="M236.24,66.77c.39.19.21.81.24,1.2l-.48-.24c0-.44.21-.71.24-.96Z"/><path class="cls-47" d="M243.2,20.58c.39.19.21.81.24,1.2l-.48-.24c.01-.44.21-.72.24-.96Z"/><path class="cls-80" d="M241.04,34.94c.02.19.46.75.24,1.2l-.48-.24c0-.34.05-.67.24-.96Z"/><path class="cls-21" d="M239.6,44.51c.43.26.2.98.24,1.43-.4.09-.15-.45-.48-.72,0-.28.23-.56.24-.72Z"/><path class="cls-47" d="M241.76,30.15c.02.19.46.74.24,1.2l-.48-.24c0-.34.05-.67.24-.96Z"/><path class="cls-47" d="M237.68,57.2c.39.19.21.81.24,1.2l-.48-.24c.01-.44.21-.72.24-.96Z"/><path class="cls-47" d="M236.96,61.98c.39.19.21.81.24,1.2l-.48-.24c.01-.44.21-.72.24-.96Z"/><path class="cls-5" d="M242,28.48c.01.18.46.75.24,1.2l-.48-.24c0-.34.05-.67.24-.96Z"/><path class="cls-7" d="M242.96,22.26c0,.16.46.7.24,1.2h-.23s-.24-.48-.24-.48c.01-.25.12-.5.24-.72Z"/><path class="cls-5" d="M239.36,46.19c0,.16.46.7.24,1.2h-.23s-.24-.48-.24-.48c.04-.25.1-.5.24-.72Z"/><path class="cls-5" d="M240.56,38.05c0,.16.46.7.24,1.2h-.23s-.24-.48-.24-.48c.02-.25.12-.5.24-.72Z"/><path class="cls-80" d="M237.44,58.87c0,.16.46.7.24,1.2h-.23s-.24-.48-.24-.48c.02-.25.12-.5.24-.72Z"/><path class="cls-5" d="M241.28,33.27c0,.16.46.7.24,1.2h-.23s-.24-.48-.24-.48c.02-.25.12-.5.24-.72Z"/><path class="cls-80" d="M241.52,31.83c0,.16.46.7.24,1.2h-.23s-.24-.48-.24-.48c.01-.25.12-.5.24-.72Z"/><path class="cls-80" d="M236.72,63.66c0,.16.46.7.24,1.2h-.23s-.24-.48-.24-.48c.02-.26.12-.5.24-.72Z"/><path class="cls-80" d="M238.88,49.3c.39.19.22.81.24,1.2h-.23s-.24-.48-.24-.48c.04-.28.22-.55.24-.72Z"/><path class="cls-80" d="M240.8,36.62c0,.16.46.7.24,1.2h-.23s-.24-.48-.24-.48c.01-.25.12-.5.24-.72Z"/><path class="cls-80" d="M243.68,17.47c.39.19.22.81.24,1.2h-.23s-.24-.48-.24-.48c.04-.28.21-.54.24-.72Z"/><path class="cls-5" d="M240.08,41.4c0,.16.46.7.24,1.2h-.23s-.24-.48-.24-.48c.04-.25.1-.5.24-.72Z"/><path class="cls-80" d="M238.16,54.09c0,.16.46.7.24,1.2h-.23s-.24-.48-.24-.48c.02-.25.12-.5.24-.72Z"/><path class="cls-80" d="M242.48,25.37c0,.16.46.7.24,1.2h-.23s-.24-.48-.24-.48c.02-.25.12-.5.24-.72Z"/><path class="cls-80" d="M238.4,52.41c.39.19.22.81.24,1.2h-.23s-.24-.48-.24-.48c.02-.29.22-.55.24-.72Z"/><path class="cls-80" d="M242.24,27.04c0,.16.46.7.24,1.2h-.23s-.24-.48-.24-.48c.01-.25.12-.5.24-.72Z"/><path class="cls-80" d="M287.81,59.11l-.24.48h-.23c.02-.38-.16-1,.24-1.19.05.21.24.63.24.72Z"/><path class="cls-5" d="M288.05,60.79l-.24.48h-.23c-.23-.5.23-1.05.24-1.19-.01.25.21.53.24.72Z"/><path class="cls-22" d="M288.05,62.46s-.12.21-.24.24c.02-.37-.17-.99.24-1.2.01.32,0,.64,0,.96Z"/><path class="cls-80" d="M288.29,64.14s.04.28-.24.24c.02-.37-.16-.99.24-1.2.04.31-.02.64,0,.96Z"/><path class="cls-47" d="M288.77,67.25s-.12.21-.24.24c.02-.37-.17-.99.24-1.2.02.32-.01.64,0,.96Z"/><path class="cls-5" d="M289.01,68.92s-.12.22-.23.24c.02-.37-.17-.99.23-1.2.04.31-.02.64,0,.96Z"/><path class="cls-66" d="M289.25,69.4c.01.17.1.51-.15.48h-7.77s7.91-.48,7.91-.48Z"/><path class="cls-7" d="M281.09,15.08c.07.07-.05.94,0,1.2-.04,0-.12.22-.24.24-.06-.27.07-1.13,0-1.2-.2-.2-4.77.13-5.65,0-.18-.03-.37-.02-.35-.24,2.05-.21,4.13-.21,6.24,0Z"/><path class="cls-66" d="M265.26,69.4c.13.72-.37.46-.83.48-1.64.06-3.29-.05-4.93,0,1.55-.6,3.56-.03,5.17-.22.46-.05.31-.38.4-.44.06-.04.16.18.19.18Z"/><path class="cls-12" d="M281.09,15.08c-.22-.22-5.42.17-6.24,0v-.24c2.03.15,4.28-.31,6.24.24Z"/><path class="cls-75" d="M279.89,54.33c-.33-.52-.22-1.1-.24-1.68l.24-.48h.23c0,.6.04,1.2,0,1.8-.03.38-.23.33-.23.35Z"/><path class="cls-77" d="M277.73,27.52c-.31-.52-.25-1.1-.24-1.68l.24-.48h.23c0,.6.04,1.2,0,1.8-.03.38-.23.33-.23.35Z"/><path class="cls-75" d="M278.93,42.6c-.27-.63-.2-1.26-.24-1.91l.48-.24c0,.6.04,1.2,0,1.8-.03.38-.23.33-.23.35Z"/><path class="cls-28" d="M278.21,33.51c-.32-.52-.23-1.1-.24-1.68l.48-.24c0,.52.04,1.04,0,1.56-.03.38-.23.33-.23.35Z"/><path class="cls-21" d="M271.26,46.91c-.12.46-.37,1.01-.48,1.44-.55-.36.04-1.13,0-1.67l.48.24Z"/><path class="cls-23" d="M277.97,30.39c-.29-.45-.22-.94-.24-1.44l.48-.24c.25.57-.22,1.44-.24,1.68Z"/><path class="cls-64" d="M280.13,57.2c-.29-.45-.22-.94-.24-1.44l.48-.24c.25.57-.22,1.45-.24,1.68Z"/><path class="cls-5" d="M280.85,66.53c0-.36-.02-.57,0-.96-.16-.38-.22-.85,0-1.2.4.34.41,1.69,0,2.15Z"/><path class="cls-35" d="M281.09,69.16c-.05-.15-.24-.37-.24-.48l.24-1.44c.42.34.39,1.55,0,1.91Z"/><path class="cls-75" d="M278.45,36.62c0-.24,0-.48,0-.72-.16-.36-.23-.89,0-1.2l.24-.24c-.09.66.26,1.63-.24,2.15Z"/><path class="cls-75" d="M279.65,51.45c0-.24,0-.48,0-.72-.16-.36-.23-.89,0-1.2l.24-.24c-.09.66.26,1.63-.24,2.15Z"/><path class="cls-77" d="M280.37,60.31c0-.24,0-.48,0-.72-.18-.4-.19-.81,0-1.2.42.34.39,1.55,0,1.91Z"/><path class="cls-53" d="M277.5,24.65l-.24-1.2s.46-.27.48-.24c.25.5-.23,1.3-.24,1.44Z"/><path class="cls-21" d="M282.77,27.52c-.01.16.01.32,0,.48h-.23c.04-.44-.2-1.15.24-1.43.03.29.02.66,0,.96Z"/><path class="cls-43" d="M280.85,68.69c0-.48.01-.96,0-1.44h.24c.25.44-.24,1.31-.24,1.44Z"/><path class="cls-80" d="M287.09,54.33l-.24.48h-.23c.02-.38-.16-1,.24-1.19.06.25.21.55.24.72Z"/><path class="cls-5" d="M284.45,36.86l-.24.48h-.23c.02-.38-.16-1,.24-1.19.06.23.22.58.24.72Z"/><path class="cls-73" d="M279.41,47.86c-.4-.26-.23-.98-.24-1.44.4.26.23.98.24,1.44Z"/><path class="cls-21" d="M282.05,22.74c-.01.16.01.32,0,.48h-.23c.04-.44-.2-1.15.24-1.43.03.29.02.66,0,.96Z"/><path class="cls-7" d="M283.49,32.31s.04.28-.24.24c.02-.37-.16-.99.24-1.2.04.31-.02.64,0,.96Z"/><path class="cls-47" d="M283.97,35.42s-.12.22-.24.24c.02-.37-.17-.99.24-1.2.02.32-.01.64,0,.96Z"/><path class="cls-70" d="M280.37,59.59c-.38-.2-.23-.81-.24-1.2h.24c0,.4,0,.8,0,1.2Z"/><path class="cls-5" d="M285.89,48.1s.03.28-.24.24c.02-.37-.16-.99.24-1.2.04.3-.03.65,0,.96Z"/><path class="cls-70" d="M280.85,65.57c-.39-.2-.22-.81-.24-1.2h.24c-.01.4.02.8,0,1.2Z"/><path class="cls-72" d="M278.45,35.9c-.38-.2-.23-.81-.24-1.2h.24v1.2Z"/><path class="cls-5" d="M281.81,21.06s-.12.21-.24.24c.02-.37-.17-.99.24-1.2.04.31-.03.65,0,.96Z"/><path class="cls-80" d="M287.33,57.68s-.12.22-.24.24c.02-.37-.17-.99.24-1.2.02.32-.02.64,0,.96Z"/><path class="cls-47" d="M285.41,44.99s-.12.21-.24.24c.02-.37-.17-.99.24-1.2.04.31-.02.64,0,.96Z"/><path class="cls-80" d="M283.25,30.63s-.12.21-.24.24c.02-.37-.17-.99.24-1.2.04.3-.03.65,0,.96Z"/><path class="cls-70" d="M279.65,50.74c-.38-.2-.23-.81-.24-1.2h.24v1.2Z"/><path class="cls-80" d="M283.01,29.2s-.11.22-.23.24c.02-.37-.17-.99.23-1.2.02.32-.01.64,0,.96Z"/><path class="cls-47" d="M281.33,17.95s.03.28-.24.24c.02-.37-.16-.99.24-1.2.04.31-.02.64,0,.96Z"/><path class="cls-72" d="M279.17,44.75c0-.07-.24-.63-.24-1.2.39.2.23.81.24,1.2Z"/><path class="cls-47" d="M282.53,25.85s-.12.21-.24.24c.02-.37-.17-.99.24-1.2.02.32-.01.64,0,.96Z"/><path class="cls-72" d="M278.69,38.77c0-.09-.22-.68-.24-1.2.39.2.22.81.24,1.2Z"/><path class="cls-80" d="M285.17,43.32s-.12.21-.24.24c.02-.37-.17-.99.24-1.2.04.3-.03.65,0,.96Z"/><path class="cls-5" d="M284.45,38.53s-.12.21-.24.24c.02-.37-.17-.99.24-1.2.01.32,0,.64,0,.96Z"/><path class="cls-5" d="M286.37,51.45s-.11.22-.23.24c.02-.37-.17-.99.23-1.2.03.31-.02.64,0,.96Z"/><path class="cls-5" d="M284.93,41.88s-.11.22-.23.24c.02-.37-.17-.99.23-1.2.04.31-.02.64,0,.96Z"/><path class="cls-47" d="M286.61,52.89s-.12.22-.24.24c.02-.37-.17-.99.24-1.2.04.3-.03.65,0,.96Z"/><path class="cls-80" d="M284.69,40.21s-.12.21-.24.24c.02-.37-.17-.99.24-1.2.04.31-.02.64,0,.96Z"/><path class="cls-5" d="M285.65,46.67s-.11.22-.23.24c.02-.37-.17-.99.23-1.2.04.31-.02.64,0,.96Z"/><path class="cls-69" d="M157.81,15.32l20.87,54.57h-8.63c-2.29-6.49-4.64-12.99-7.2-19.39-.22-.05-.21-.13,0-.24-.22-.06-.21-.14,0-.24h-22.78c.21.06.21.14,0,.24.21.07.21.15,0,.24-.5,1.64-1.07,3.3-1.67,4.91-1.8,4.84-3.72,9.67-5.64,14.47h-5.64l22.78-54.8c2.6.11,5.24.19,7.91.24ZM141.51,47.15c0,.08,0,.16,0,.24h20.15v-.24l-10.19-26.33-9.95,26.33Z"/><path class="cls-49" d="M162.85,50.26c.03.06-.03.17,0,.24h-22.78c.02-.07-.01-.16,0-.24,7.34-.21,15.36-.21,22.78,0Z"/><path class="cls-3" d="M157.81,15.08c-2.5.18-5.34.23-7.91,0,.19-.32.51-.23.82-.25,1.75-.14,3.97,0,5.78.01.41,0,1.07-.15,1.32.24Z"/><path class="cls-7" d="M157.81,15.08v.24c-2.27-.07-4.56.09-6.84,0-.33-.01-.99.17-1.08-.24h7.91Z"/><path class="cls-7" d="M162.85,50.02s-.03.17,0,.24h-22.78c.01-.08,0-.16,0-.24h22.78Z"/><path class="cls-63" d="M161.65,47.39h-20.15c6.52-.21,13.58-.21,20.15,0Z"/><path class="cls-71" d="M161.65,47.15v.24h-20.15c0-.08,0-.16,0-.24h20.15Z"/><path class="cls-69" d="M212.02,15.08l20.87,54.8h-8.27l-7.32-19.39c-.21-.06-.21-.14,0-.24-.21-.06-.21-.14,0-.24h-22.78c.21.08.21.16,0,.24.21.06.2.14,0,.24-2.46,6.16-4.54,12.51-7.13,18.63-.1.23-.09.51-.07.76h-6l22.78-54.57c2.59-.08,5.23-.16,7.91-.24ZM195.95,46.91c-.03.09-.34.24-.24.48h20.15v-.24l-9.84-26.09c-.38-.4-.8.96-.88,1.16-3.07,7.45-6.98,17.07-9.19,24.69Z"/><path class="cls-49" d="M217.3,50.26c.01.08,0,.16,0,.24h-22.78c.03-.07-.03-.19,0-.24,7.34-.21,15.36-.21,22.78,0Z"/><path class="cls-7" d="M212.02,15.08l-1.08.24h-6.84s0-.24,0-.24c2.6-.2,5.32-.28,7.91,0Z"/><path class="cls-3" d="M212.02,15.08h-7.91c.25-.4.91-.24,1.32-.24,1.8-.02,4.04-.16,5.78-.01.3.03.64-.08.82.25Z"/><path class="cls-7" d="M217.3,50.02c0,.08-.01.16,0,.24h-22.78c.03-.06-.04-.22,0-.24h22.78Z"/><path class="cls-71" d="M215.86,47.15v.24h-20.15c-.1-.24.21-.39.24-.48l19.91.24Z"/><path class="cls-69" d="M123.28,15.32c.13-.15.72-.19.82-.12.16.11.02,3.46-.1,3.95-.57.08-1.31-.01-1.92,0-.21-.07-.21-.15,0-.24-1.67-.2-3.37-.2-5.04,0-.64,0-1.28,0-1.92,0-.21-.07-.21-.15,0-.24-1.28-.19-2.64-.19-4.08,0-.8,0-1.6.01-2.4,0-.21-.07-.21-.15,0-.24-1.15-.17-2.43-.17-3.84,0-.8-.02-1.6.02-2.4,0-.21-.07-.21-.15,0-.24-1.59-.2-3.21-.2-4.8,0-.72,0-1.44,0-2.16,0-.21-.07-.21-.15,0-.24-1.13-.26-2.74-.13-4.08,0-.09.04-.31-.08-.44.03l-.04,22.95,30.22.24c-.12,1.31-.17,2.63-.12,3.95l-1.56.12c-.72,0-1.44.02-2.16,0-.21-.07-.21-.15,0-.24-.96-.26-2.27-.14-3.36,0-.8,0-1.6,0-2.4,0-1.11-.43-2.8-.4-4.08-.24-.64,0-1.28,0-1.92,0-.21-.07-.21-.15,0-.24-1.16-.13-2.44-.13-3.84,0-.72-.03-1.44.03-2.16,0-.21-.07-.21-.15,0-.24-1.06-.18-2.5-.28-3.6,0-.64,0-1.28,0-1.92,0-.21-.07-.21-.15,0-.24-1.04-.13-2.89-.17-3.12.24-.36,7.43.27,15.13,0,22.59-.03.26.31.12.48.14l2.16-.24c.56,0,1.12,0,1.68,0,1.58.19,3.27.21,4.8,0-.21-.07-.21-.15,0-.24.8,0,1.6,0,2.4,0,1.25.3,3.17.15,4.08,0-.21-.07-.21-.15,0-.24.72,0,1.44,0,2.16,0,1.48.17,3.47.23,4.56,0-.21-.07-.21-.15,0-.24.56,0,1.12,0,1.68,0,1.51.19,3.05.22,4.56,0,.08-.13.24-.21.48-.24.72,0,1.44-.01,2.16,0h.24c.57.14,1.17.17,1.79.12.14.14.02,3.46-.11,3.95h-38.85l-.24-.17c-.08-17.81-.08-36.18,0-53.99,0-.06.11-.11.24-.17,12.66-.07,25.37-.15,38.13-.24Z"/><path class="cls-66" d="M85.14,15.32c.21.07.21.15,0,.24v54.33l-.48-.14V15.08h.24c.15.03.26.06.24.24Z"/><path class="cls-7" d="M124.24,15.08c.25,1.3.2,2.75,0,4.07-.05.02-.15-.01-.24,0v-3.83c-.23.02-.5-.03-.72,0-12.54.23-25.63.21-38.13,0l-.24-.24h39.33Z"/><path class="cls-75" d="M107.45,44.75c1.03-.4,2.6-.29,3.72-.24.59.03.78-.17.36.48-.72,0-1.44,0-2.16,0l-1.44-.24c-.16,0-.32,0-.48,0Z"/><path class="cls-7" d="M121.12,41.4c.26,1.26.19,2.57,0,3.83-.4.41-1.39,0-1.68,0,.2-.48,1.33-.13,1.44-.24.21-.21-.34-3.3.24-3.83,0,.08-.01.16,0,.24Z"/><path class="cls-9" d="M104.81,18.43c1.54-.55,3.42-.1,5.04-.24.01.43-.89.23-1.2.24-.37.19-.85.19-1.2,0-.46.07-.94.15-1.44.24-.32,0-1.04-.23-1.2-.24Z"/><path class="cls-80" d="M101.69,44.51c1.37-.55,3.1-.1,4.56-.24.06.4-.45.22-.72.24-.6.07-1.24.15-1.92.24-.6-.02-1.41-.22-1.92-.24Z"/><path class="cls-51" d="M109.85,66.29c.48-.19.97-.19,1.44,0,.6-.19,1.31-.2,1.92,0,.31,0,1.21-.2,1.2.24-1.86-.14-3.97.31-5.75-.24.4,0,.8,0,1.2,0Z"/><path class="cls-7" d="M123.28,65.81c.28.02.78-.06.96,0,.26,1.28.19,2.75,0,4.07-.06.03-.17-.02-.24,0-.1-.57.14-3.7,0-3.83s-1.43.26-1.68-.24c.26-.24.67-.16.96,0Z"/><path class="cls-75" d="M91.38,17.95c1.39-.55,3.28-.09,4.8-.24.06.4-.45.22-.72.24-.51.21-1.18.19-1.68,0-.41.23-.98.16-1.44,0-.23.01-.58.39-.96,0Z"/><path class="cls-75" d="M111.05,18.67c1.45-.55,3.26-.1,4.8-.24.06.4-.45.22-.72.24-.51.21-1.18.19-1.68,0-.45.22-.98.18-1.44,0-.07,0-.28.17-.55.17-.17,0-.33-.17-.41-.17Z"/><path class="cls-16" d="M122.08,18.91c-.38.18-.82.19-1.2,0-.38.18-.82.18-1.2,0-.63.2-1.28.19-1.92,0-.24,0-.48,0-.72,0,1.46-.4,3.58-.4,5.04,0Z"/><path class="cls-9" d="M113.92,44.99c1.37-.55,3.1-.1,4.56-.24.01.43-.89.23-1.2.24-.36.19-.84.19-1.2,0-.45.22-.98.18-1.44,0-.23,0-.52,0-.72,0Z"/><path class="cls-30" d="M95.94,66.77c.47-.2.96-.2,1.44,0h.72c.59-.18,1.38-.24,1.92,0l.24.24c-1.62-.14-3.5.31-5.04-.24.24,0,.48,0,.72,0Z"/><path class="cls-75" d="M102.41,18.19c-.38.18-.82.19-1.2,0-.38.18-.82.18-1.2,0-.63.2-1.28.19-1.92,0-.16,0-.32,0-.48,0,1.37-.4,3.4-.4,4.8,0Z"/><path class="cls-14" d="M115.6,66.05c.45-.2.99-.2,1.44,0h.72c.52-.14,1.23-.27,1.68,0-1.17.43-3.31.38-4.56,0,.24,0,.48,0,.72,0Z"/><path class="cls-23" d="M94.02,44.04c-.43.07-.91.15-1.44.24-.55-.01-1.09-.2-1.68,0,0-.16-.01-.32,0-.48.99.12,2.31-.29,3.12.24Z"/><path class="cls-32" d="M124.24,19.15v-4.07c.33.16.23.52.25.82.04.55.12,3.08-.25,3.25Z"/><path class="cls-32" d="M124.24,69.88v-4.07c.34.12.23.31.25.59.04.58.13,3.31-.25,3.48Z"/><path class="cls-27" d="M121.12,45.23c-.12-1.2.16-2.67,0-3.83.38.68.42,3.4,0,3.83Z"/><path class="cls-74" d="M119.92,65.81c-.12.19-.31.18-.48.24h-1.68c.47-.43,1.48-.23,2.16-.24Z"/><path class="cls-54" d="M93.54,66.77c-.4.37-1.58.31-2.16.24.47-.43,1.48-.23,2.16-.24Z"/><path class="cls-74" d="M100.01,66.53v.24h-1.92c.4-.43,1.32-.23,1.92-.24Z"/><path class="cls-42" d="M119.68,18.91c.21.07.21.15,0,.24-.6,0-1.52.19-1.92-.24.64,0,1.28,0,1.92,0Z"/><path class="cls-54" d="M113.2,66.05v.24c-.64-.02-1.28,0-1.92,0-.21-.07-.21-.15,0-.24.64,0,1.28,0,1.92,0Z"/><path class="cls-45" d="M105.53,44.51v.24c-.64,0-1.28.02-1.92,0,.41-.44,1.31-.21,1.92-.24Z"/><path class="cls-42" d="M100.01,18.19c.21.07.21.15,0,.24-.6,0-1.52.19-1.92-.24.64,0,1.28,0,1.92,0Z"/><path class="cls-45" d="M115.12,18.67v.24c-.56,0-1.12,0-1.68,0-.21-.07-.21-.15,0-.24.56-.02,1.12.03,1.68,0Z"/><path class="cls-45" d="M95.46,17.95v.24c-.56,0-1.12,0-1.68,0-.21-.07-.21-.15,0-.24.56-.02,1.12.03,1.68,0Z"/><path class="cls-11" d="M107.45,18.43c.21.07.21.15,0,.24-.48,0-.96.01-1.44,0,.26-.4.99-.23,1.44-.24Z"/><path class="cls-25" d="M97.38,66.77c-.48,0-.96,0-1.44,0,.24-.39,1.21-.38,1.44,0Z"/><path class="cls-36" d="M94.02,44.04v.24c-.48,0-.96,0-1.44,0,.27-.43.99-.2,1.44-.24Z"/><path class="cls-4" d="M113.44,18.67v.24c-.45,0-1.18.16-1.44-.24.48,0,.96.01,1.44,0Z"/><path class="cls-54" d="M106.49,66.29v.24c-.46.15-1,.21-1.44,0-.21-.07-.21-.15,0-.24.48,0,.96,0,1.44,0Z"/><path class="cls-73" d="M105.05,66.29v.24c-.48.21-.97.23-1.44,0-.21-.07-.21-.15,0-.24.48-.02.96,0,1.44,0Z"/><path class="cls-67" d="M111.29,66.05v.24c-.48,0-.96,0-1.44,0,.26-.4.99-.23,1.44-.24Z"/><path class="cls-25" d="M117.04,66.05h-1.44c.24-.39,1.21-.38,1.44,0Z"/><path class="cls-2" d="M109.37,44.99c-.45,0-1.18.16-1.44-.24.45,0,1.18-.16,1.44.24Z"/><path class="cls-4" d="M93.78,17.95v.24c-.45,0-1.18.16-1.44-.24.48-.03.96.01,1.44,0Z"/><path class="cls-13" d="M116.08,44.99c.21.07.21.15,0,.24-.45,0-1.18.16-1.44-.24.48,0,.96.01,1.44,0Z"/><path class="cls-81" d="M117.28,44.99v.24c-.4,0-.8,0-1.2,0v-.24c.4,0,.8.01,1.2,0Z"/><path class="cls-10" d="M123.28,65.81c-.32-.02-.64,0-.96,0-.08,0-.16,0-.24,0,.16-.38,1.04-.38,1.2,0Z"/><path class="cls-44" d="M99.53,44.27v.24c-.4-.01-.8,0-1.2,0-.21-.07-.21-.15,0-.24.35-.2.83-.16,1.2,0Z"/><path class="cls-37" d="M98.33,44.27v.24c-.4,0-.8.02-1.2,0-.21-.07-.21-.15,0-.24.39-.22.8-.21,1.2,0Z"/><path class="cls-36" d="M122.08,18.91v.24c-.4,0-.8,0-1.2,0-.21-.07-.21-.15,0-.24.4,0,.8,0,1.2,0Z"/><path class="cls-78" d="M120.88,18.91v.24c-.4,0-.8,0-1.2,0v-.24c.4,0,.8,0,1.2,0Z"/><path class="cls-41" d="M97.14,44.27v.24c-.39-.02-1.19.15-1.2-.24.4-.18.81-.22,1.2,0Z"/><path class="cls-10" d="M103.61,66.29v.24c-.39.22-.79.18-1.2,0,0-.39.81-.22,1.2-.24Z"/><path class="cls-54" d="M108.65,18.43v.24c-.4,0-.8,0-1.2,0v-.24c.4,0,.8.01,1.2,0Z"/><path class="cls-36" d="M102.41,18.19v.24c-.4-.01-.8,0-1.2,0-.21-.07-.21-.15,0-.24.4,0,.8,0,1.2,0Z"/><path class="cls-78" d="M101.21,18.19v.24c-.4,0-.8,0-1.2,0v-.24c.4,0,.8,0,1.2,0Z"/><rect class="cls-21" x="85.38" y="69.4" width="38.37" height=".24"/><path class="cls-26" d="M123.28,15.32c-.13.02-.49.39-.81.26l-37.32-.02v-.24h38.13Z"/><rect class="cls-21" x="90.9" y="41.16" width="29.74" height=".24"/><rect class="cls-66" x="90.42" y="17.95" width=".24" height="22.97"/><rect class="cls-66" x="90.42" y="44.27" width=".24" height="22.5"/><path class="cls-9" d="M103.61,66.53c.48,0,.96,0,1.44,0s.96-.01,1.44,0c.31,0,1.21-.2,1.2.24-1.53-.16-3.45.22-4.92,0-.2-.03-.38.05-.36-.24.4,0,.8,0,1.2,0Z"/><path class="cls-9" d="M95.94,44.27c-.02-.29.15-.21.36-.24,1.33-.19,3.06.15,4.44,0,.01.43-.89.23-1.2.24-.4.01-.8,0-1.2,0s-.8,0-1.2,0-.8,0-1.2,0Z"/><path class="cls-69" d="M320.67,15.32c.37.26,1.16.13,1.68,0,13.24,1.39,24.96,16.05,22.54,29.2-.16.51-.16.99,0,1.44-.02.31.04.67,0,.96-.3.05-.38.29-.24.72-1.87,9.72-10.57,20.79-21.11,21.78-.27-.12-.84-.25-.48,0-.17.39-.67.18-.96.24-2.43-.04-4.82-.04-7.2,0-13.27-1.54-22.43-13.11-23.02-26.09.19-.86.19-1.77,0-2.63.02-.48-.04-.96,0-1.44.33-.13.41-.53.24-1.2,1.43-11.1,9.84-20.85,21.11-22.74,1.01.06,2.49-.1,3.12-.24-.21-.07-.21-.15,0-.24.59,0,4.31-.14,4.32.24ZM316.83,18.43c-.16.01-.32-.01-.48,0-.41-.42-1.43-.46-1.2.24-9.01,1.89-12.15,8.93-13.91,17.23-.09-1.33-.59.59,0,1.2-.07.23-.22.41-.24.48-.14.53-.61,1.35,0,1.91-.01,2.67.09,5.26.24,7.9-.4.21-.21.83-.24,1.2.11-.03.2-.24.24-.24.11-.01.2,0,.24.12.83,7.59,4.98,15.9,13.07,17.59.12.05.13.12.12.24,0,.04-.21.13-.24.23.93-.14,2.07.67,2.88,0,.16,0,.32,0,.48,0,.23.38,1.2.39,1.44,0,.16,0,.32.01.48,0,.78.66,1.88-.12,2.76,0l-.6-.24c8.25-1.83,13-10.32,13.67-18.19l.24.48h.23c.23-.5-.22-1.01-.24-1.19-.03-.38,0-.81,0-1.2l.24.48h.23c-.08-.78.25-1.73-.24-2.39.03-1.75.03-3.52,0-5.27,0-.55-.24-1.13-.24-1.2,0-.24,0-.48,0-.72,0-.13.47-.77.24-1.2l-.48.24c-1.16-8.31-5.19-15.99-14.15-17.47l.48-.24v-.23c-.38.02-1-.16-1.2.24-.24-.02-.48.02-.72,0,.43-.65.23-.45-.36-.48-.63-.03-1.3-.02-1.93,0-.46.02-.96-.24-.83.48Z"/><path class="cls-29" d="M322.11,69.64c-2.36.45-4.81.28-7.2,0,.25-.4.91-.24,1.32-.24,1.9-.02,4.06-.18,5.88.24Z"/><path class="cls-51" d="M314.91,15.32c.45-.19,1.03-.24,1.44,0,.27.01.78-.17.72.24-1.25-.29-2.73.56-3.84,0,.56-.09,1.1-.2,1.68-.24Z"/><path class="cls-21" d="M292.13,38.29c.48.41.17,1.31.24,1.91-.4.09-.15-.45-.48-.72.04-.52.19-.85.24-1.2Z"/><path class="cls-79" d="M291.89,43.56c-.04-.85-.03-1.78,0-2.63.41.61.4,2.07,0,2.63Z"/><path class="cls-75" d="M322.35,15.32c-.44.48-1.33.16-1.92.24-.04-.27.24-.22.24-.24.55.04,1.14-.06,1.68,0Z"/><path class="cls-80" d="M344.89,45.95c-.65-.43-.05-1.15,0-1.44.06.49.03.95,0,1.44Z"/><path class="cls-70" d="M316.35,15.08v.24c-.46-.03-.98-.03-1.44,0,.26-.4.99-.23,1.44-.24Z"/><path class="cls-5" d="M344.89,46.91c-.03.18-.19.45-.24.72-.39-.19-.22-.81-.24-1.2h.23s.24.48.24.48Z"/><path class="cls-5" d="M323.54,69.4c-.15.01-.32,0-.48,0-.24,0-.48,0-.72,0v-.23c.37.02.98-.16,1.2.24Z"/><path class="cls-23" d="M316.83,18.43c-.13-.72.37-.46.83-.48.63-.02,1.3-.03,1.93,0,.59.03.78-.17.36.48-.16-.01-.32,0-.48,0-.7-.22-1.46-.22-2.16,0-.16,0-.32-.01-.48,0Z"/><path class="cls-5" d="M336.02,44.27c.48.66.16,1.61.24,2.39h-.23s-.24-.48-.24-.48c0-.71.23-1.3.24-1.91Z"/><path class="cls-51" d="M321.87,66.29l.6.24c-.88-.12-1.98.66-2.76,0,.68-.05,1.5-.09,2.16-.24Z"/><path class="cls-38" d="M317.31,66.53c-.81.66-1.95-.15-2.88,0,.03-.11.24-.2.24-.23.89.05,1.74.2,2.64.24Z"/><path class="cls-23" d="M301,39.49c-.61-.57-.14-1.38,0-1.91.03.64,0,1.29,0,1.91Z"/><path class="cls-5" d="M335.78,37.09c-.22-.29-.19-.62-.24-.96l.48-.24c.23.42-.23,1.07-.24,1.2Z"/><path class="cls-58" d="M301.24,35.9c-.06.3.17.61,0,1.2-.59-.61-.09-2.53,0-1.2Z"/><path class="cls-20" d="M316.35,18.43c-.32.03-.86.17-1.2.24-.23-.7.79-.66,1.2-.24Z"/><path class="cls-80" d="M335.78,47.39c.02.18.46.7.24,1.2h-.23s-.24-.48-.24-.48c.02-.26.11-.5.24-.72Z"/><path class="cls-5" d="M320.67,18.43c.19-.39.81-.22,1.2-.24v.23s-.48.24-.48.24c-.27-.04-.57-.22-.72-.24Z"/><path class="cls-51" d="M319.23,66.53c-.24.39-1.21.38-1.44,0,.48.01.96.02,1.44,0Z"/><path class="cls-28" d="M301.24,48.34s-.12.21-.24.24c.02-.37-.17-.99.24-1.2.02.32-.01.64,0,.96Z"/><path class="cls-72" d="M336.02,39.01c-.39-.2-.23-.81-.24-1.2,0,.06.23.65.24,1.2Z"/><path class="cls-6" d="M319.47,18.43c-.69-.04-1.47-.03-2.16,0,.45-.4,1.71-.4,2.16,0Z"/></svg>